<?xml version="1.0" standalone="no"?><!DOCTYPE svg PUBLIC "-//W3C//DTD SVG 1.1//EN" "http://www.w3.org/Graphics/SVG/1.1/DTD/svg11.dtd"><svg t="1559013897486" class="icon" style="" viewBox="0 0 1024 1024" version="1.1" xmlns="http://www.w3.org/2000/svg" p-id="1700" xmlns:xlink="http://www.w3.org/1999/xlink" width="200" height="200"><defs><style type="text/css"></style></defs><path d="M869.864727 46.545455A107.706182 107.706182 0 0 1 977.454545 154.112v599.412364A107.706182 107.706182 0 0 1 869.864727 861.090909H721.454545v8.797091A107.682909 107.682909 0 0 1 613.888 977.454545H154.112A107.682909 107.682909 0 0 1 46.545455 869.888V270.475636A107.682909 107.682909 0 0 1 154.112 162.909091H302.545455v-8.797091A107.706182 107.706182 0 0 1 410.135273 46.545455h459.729454zM154.135273 907.636364h459.729454A37.841455 37.841455 0 0 0 651.636364 869.888V270.475636c0-20.805818-16.942545-37.748364-37.748364-37.748363H154.135273C133.329455 232.727273 116.363636 249.669818 116.363636 270.475636v599.412364C116.363636 890.717091 133.329455 907.636364 154.135273 907.636364zM907.636364 753.524364V154.112C907.636364 133.306182 890.670545 116.363636 869.864727 116.363636H410.135273C389.329455 116.363636 372.363636 133.306182 372.363636 154.112V162.909091h241.524364A107.682909 107.682909 0 0 1 721.454545 270.475636V791.272727h148.410182c20.805818 0 37.771636-16.919273 37.771637-37.748363zM523.636364 372.363636a34.909091 34.909091 0 0 1 0 69.818182h-279.272728a34.909091 34.909091 0 0 1 0-69.818182h279.272728z m0 162.909091a34.909091 34.909091 0 0 1 0 69.818182h-279.272728a34.909091 34.909091 0 0 1 0-69.818182h279.272728z m-93.090909 162.909091a34.909091 34.909091 0 0 1 0 69.818182h-186.181819a34.909091 34.909091 0 0 1 0-69.818182h186.181819z" fill="#ffffff" p-id="1701"></path></svg>